<svg width="33" height="30" viewBox="0 0 33 30" fill="none" xmlns="http://www.w3.org/2000/svg">
<path d="M7.54992 0.255859C5.78583 0.255859 4.09401 0.956638 2.84661 2.20403C1.59922 3.45143 0.898438 5.14326 0.898438 6.90734V21.4197C0.898438 23.1837 1.59922 24.8756 2.84661 26.123C4.09401 27.3704 5.78583 28.0711 7.54992 28.0711H17.2901C17.1668 27.1263 17.3589 26.1672 17.8367 25.3428L18.3568 24.4431H7.54992C5.881 24.4431 4.52652 23.0886 4.52652 21.4197V7.51202H25.0856V10.4C26.2273 9.94767 27.4802 9.79529 28.7137 9.97911V6.90734C28.7137 5.14326 28.0129 3.45143 26.7655 2.20403C25.5181 0.956638 23.8263 0.255859 22.0622 0.255859H7.54992ZM20.9037 18.8461C20.4142 17.1109 20.6117 15.2539 21.4551 13.6604L18.081 10.2839C17.8539 10.0571 17.5461 9.92984 17.2252 9.93007C16.9042 9.93029 16.5965 10.058 16.3698 10.2851C16.143 10.5122 16.0157 10.82 16.016 11.141C16.0162 11.4619 16.1439 11.7696 16.371 11.9963L20.3522 15.9775L16.371 19.9587C16.1439 20.1855 16.0162 20.4932 16.016 20.8141C16.0157 21.135 16.143 21.4429 16.3698 21.67C16.5965 21.8971 16.9042 22.0248 17.2252 22.025C17.5461 22.0252 17.8539 21.898 18.081 21.6712L20.9037 18.8461V18.8461ZM13.2412 10.2839C13.3538 10.3962 13.4431 10.5297 13.5041 10.6766C13.5651 10.8235 13.5965 10.981 13.5965 11.1401C13.5965 11.2992 13.5651 11.4567 13.5041 11.6036C13.4431 11.7505 13.3538 11.884 13.2412 11.9963L9.25995 15.9775L13.2412 19.9587C13.3536 20.071 13.4428 20.2044 13.5037 20.3511C13.5647 20.4979 13.5961 20.6552 13.5962 20.8141C13.5963 20.973 13.5651 21.1304 13.5044 21.2772C13.4437 21.4241 13.3547 21.5576 13.2424 21.67C13.1301 21.7824 12.9968 21.8717 12.85 21.9326C12.7032 21.9935 12.5459 22.0249 12.387 22.025C12.2281 22.0251 12.0707 21.9939 11.9239 21.9332C11.777 21.8725 11.6436 21.7835 11.5311 21.6712L6.69369 16.8338C6.58107 16.7214 6.49171 16.588 6.43074 16.441C6.36978 16.2941 6.3384 16.1366 6.3384 15.9775C6.3384 15.8185 6.36978 15.661 6.43074 15.514C6.49171 15.3671 6.58107 15.2336 6.69369 15.1213L11.5311 10.2839C11.7579 10.0572 12.0655 9.92979 12.3861 9.92979C12.7068 9.92979 13.0144 10.0572 13.2412 10.2839V10.2839ZM28.5275 12.4002L26.3506 16.1735C26.2411 16.3489 26.1681 16.5447 26.1358 16.749C26.1036 16.9533 26.1128 17.162 26.163 17.3627C26.2131 17.5634 26.3032 17.7519 26.4278 17.917C26.5524 18.0822 26.7089 18.2205 26.8881 18.3239C27.0673 18.4272 27.2655 18.4934 27.4708 18.5185C27.6761 18.5436 27.8844 18.5271 28.0832 18.4699C28.282 18.4128 28.4673 18.3162 28.628 18.186C28.7886 18.0557 28.9215 17.8944 29.0185 17.7118L31.1953 13.941C31.7927 14.6391 32.1684 15.4995 32.2743 16.4122C32.3802 17.3249 32.2115 18.2484 31.7898 19.0648C31.3681 19.8811 30.7126 20.5532 29.907 20.9951C29.1014 21.4369 28.1824 21.6286 27.2673 21.5454L23.2668 28.4751C23.143 28.6988 22.9759 28.8957 22.7752 29.0542C22.5745 29.2126 22.3443 29.3296 22.0979 29.3981C21.8516 29.4666 21.5941 29.4854 21.3404 29.4533C21.0867 29.4212 20.8419 29.3389 20.6204 29.2112C20.3989 29.0835 20.205 28.9129 20.0501 28.7094C19.8952 28.506 19.7824 28.2737 19.7182 28.0262C19.6541 27.7787 19.6399 27.5208 19.6765 27.2677C19.7131 27.0147 19.7997 26.7714 19.9313 26.5522L23.9247 19.6346C23.3877 18.8853 23.0873 17.9924 23.062 17.0708C23.0367 16.1493 23.2877 15.2413 23.7827 14.4635C24.2776 13.6858 24.994 13.074 25.8396 12.7067C26.6851 12.3394 27.6212 12.2336 28.5275 12.4027V12.4002Z" fill="black" fill-opacity="0.6"/>
</svg>
