<svg width="25" height="26" viewBox="0 0 25 26" fill="none" xmlns="http://www.w3.org/2000/svg">
<path d="M6.25964 0.166016V3.17796H4.7526V6.18884H3.24876V9.20079H1.74279V12.2117H0.236816V15.2236H9.27052V18.2345H7.76562V21.2464H6.25964V24.2573H7.76562V22.7514H9.27052V21.2464H10.7765V19.7405H12.2825V18.2334H13.7884V16.7296H15.2944V15.2247H16.7993V13.7187H18.3053V12.2127H19.8113V10.7057H21.3172V9.20079H22.8222V7.69482H18.3053V6.18884H19.8113V4.68287H21.3172V3.17796H22.8222V1.67199H24.3281V0.166016H6.25964ZM6.25964 24.2573H4.7526V25.7633H6.25858L6.25964 24.2573ZM7.76562 3.17796H18.3053V4.68287H16.7993V6.18884H15.2944V7.69588H13.7884V9.19973H12.2825V10.7046H13.7884V12.2106H12.2825V10.7057H10.7765V12.2117H9.27052V10.7057H7.76562V12.2117H6.25964V10.7057H4.7526V9.20079H6.25858V6.18884H7.76455L7.76562 3.17796ZM6.25964 9.19973V10.7046H7.76562V9.20079L6.25964 9.19973ZM9.27052 10.7046H10.7765V9.20079H9.27052V10.7046ZM15.2944 10.7046H16.7993V12.2106H15.2944V10.7046Z" fill="black" fill-opacity="0.6"/>
</svg>
