<svg width="25" height="26" viewBox="0 0 25 26" fill="none" xmlns="http://www.w3.org/2000/svg">
<path d="M7.36295 0.166016V16.4587C6.85062 16.2691 6.30937 16.1695 5.76312 16.1643C4.81387 16.1643 3.88593 16.4458 3.09666 16.9732C2.30739 17.5006 1.69223 18.2501 1.32896 19.1271C0.965703 20.0041 0.870657 20.9691 1.05585 21.9001C1.24104 22.8312 1.69814 23.6863 2.36936 24.3576C3.04058 25.0288 3.89577 25.4859 4.82678 25.6711C5.75779 25.8563 6.72281 25.7612 7.5998 25.398C8.47679 25.0347 9.22637 24.4195 9.75375 23.6303C10.2811 22.841 10.5626 21.9131 10.5626 20.9638V4.96551H21.7614V11.6592C21.2491 11.4696 20.7078 11.37 20.1616 11.3648C19.2123 11.3648 18.2844 11.6463 17.4951 12.1737C16.7059 12.7011 16.0907 13.4506 15.7274 14.3276C15.3642 15.2046 15.2691 16.1696 15.4543 17.1007C15.6395 18.0317 16.0966 18.8868 16.7678 19.5581C17.4391 20.2293 18.2942 20.6864 19.2253 20.8716C20.1563 21.0568 21.1213 20.9617 21.9983 20.5985C22.8753 20.2352 23.6248 19.62 24.1522 18.8308C24.6796 18.0415 24.9611 17.1136 24.9611 16.1643V0.166016H7.36295Z" fill="black" fill-opacity="0.6"/>
</svg>
