<svg width="27" height="20" viewBox="0 0 27 20" fill="none" xmlns="http://www.w3.org/2000/svg">
<path d="M6.23707 0.413086H8.37017V2.54619H6.23707V7.87896C6.23707 8.4447 6.01233 8.98726 5.61229 9.3873C5.21226 9.78733 4.66969 10.0121 4.10396 10.0121C4.66969 10.0121 5.21226 10.2368 5.61229 10.6368C6.01233 11.0369 6.23707 11.5794 6.23707 12.1452V17.4779H8.37017V19.6111H6.23707C5.09585 19.3231 4.10396 18.6512 4.10396 17.4779V13.2117C4.10396 12.646 3.87922 12.1034 3.47919 11.7034C3.07915 11.3034 2.53659 11.0786 1.97085 11.0786H0.904297V8.94551H1.97085C2.53659 8.94551 3.07915 8.72078 3.47919 8.32074C3.87922 7.92071 4.10396 7.37814 4.10396 6.81241V2.54619C4.10396 1.98046 4.3287 1.43789 4.72873 1.03786C5.12877 0.637823 5.67133 0.413086 6.23707 0.413086M21.1688 0.413086C21.7346 0.413086 22.2771 0.637823 22.6772 1.03786C23.0772 1.43789 23.3019 1.98046 23.3019 2.54619V6.81241C23.3019 7.37814 23.5267 7.92071 23.9267 8.32074C24.3267 8.72078 24.8693 8.94551 25.435 8.94551H26.5016V11.0786H25.435C24.8693 11.0786 24.3267 11.3034 23.9267 11.7034C23.5267 12.1034 23.3019 12.646 23.3019 13.2117V17.4779C23.3019 18.0437 23.0772 18.5862 22.6772 18.9863C22.2771 19.3863 21.7346 19.6111 21.1688 19.6111H19.0357V17.4779H21.1688V12.1452C21.1688 11.5794 21.3936 11.0369 21.7936 10.6368C22.1936 10.2368 22.7362 10.0121 23.3019 10.0121C22.7362 10.0121 22.1936 9.78733 21.7936 9.3873C21.3936 8.98726 21.1688 8.4447 21.1688 7.87896V2.54619H19.0357V0.413086H21.1688ZM13.7029 13.2117C13.9858 13.2117 14.2571 13.3241 14.4571 13.5241C14.6571 13.7241 14.7695 13.9954 14.7695 14.2783C14.7695 14.5612 14.6571 14.8324 14.4571 15.0325C14.2571 15.2325 13.9858 15.3448 13.7029 15.3448C13.4201 15.3448 13.1488 15.2325 12.9488 15.0325C12.7488 14.8324 12.6364 14.5612 12.6364 14.2783C12.6364 13.9954 12.7488 13.7241 12.9488 13.5241C13.1488 13.3241 13.4201 13.2117 13.7029 13.2117M9.43673 13.2117C9.71959 13.2117 9.99088 13.3241 10.1909 13.5241C10.3909 13.7241 10.5033 13.9954 10.5033 14.2783C10.5033 14.5612 10.3909 14.8324 10.1909 15.0325C9.99088 15.2325 9.71959 15.3448 9.43673 15.3448C9.15386 15.3448 8.88258 15.2325 8.68256 15.0325C8.48254 14.8324 8.37017 14.5612 8.37017 14.2783C8.37017 13.9954 8.48254 13.7241 8.68256 13.5241C8.88258 13.3241 9.15386 13.2117 9.43673 13.2117ZM17.9692 13.2117C18.252 13.2117 18.5233 13.3241 18.7233 13.5241C18.9233 13.7241 19.0357 13.9954 19.0357 14.2783C19.0357 14.5612 18.9233 14.8324 18.7233 15.0325C18.5233 15.2325 18.252 15.3448 17.9692 15.3448C17.6863 15.3448 17.415 15.2325 17.215 15.0325C17.015 14.8324 16.9026 14.5612 16.9026 14.2783C16.9026 13.9954 17.015 13.7241 17.215 13.5241C17.415 13.3241 17.6863 13.2117 17.9692 13.2117V13.2117Z" fill="black" fill-opacity="0.6"/>
</svg>
