<svg width="17" height="22" viewBox="0 0 17 22" fill="none" xmlns="http://www.w3.org/2000/svg">
<path d="M8.94256 12.9501V11.7119H7.62254V12.9501C7.62253 13.0582 7.60923 13.166 7.58294 13.2709L7.05493 15.3803L8.28255 16.1987L9.51017 15.3803L8.98216 13.2709C8.95588 13.166 8.94258 13.0582 8.94256 12.9501Z" fill="black" fill-opacity="0.6"/>
<path d="M3.00211 0.490234H13.5623C14.2625 0.490234 14.934 0.768381 15.4291 1.26349C15.9242 1.75859 16.2023 2.4301 16.2023 3.13028V18.9706C16.2023 19.6707 15.9242 20.3422 15.4291 20.8373C14.934 21.3325 14.2625 21.6106 13.5623 21.6106H3.00211C2.30192 21.6106 1.63042 21.3325 1.13531 20.8373C0.640207 20.3422 0.362061 19.6707 0.362061 18.9706V3.13028C0.362061 2.4301 0.640207 1.75859 1.13531 1.26349C1.63042 0.768381 2.30192 0.490234 3.00211 0.490234V0.490234ZM6.30216 11.7104V12.9486L5.77415 15.0593C5.70837 15.3234 5.72582 15.6014 5.82412 15.8552C5.92242 16.109 6.09677 16.3262 6.32328 16.477L7.55091 17.2954C7.76769 17.4399 8.02236 17.517 8.28286 17.517C8.54336 17.517 8.79803 17.4399 9.01481 17.2954L10.2424 16.477C10.4687 16.326 10.6428 16.1087 10.7408 15.8549C10.8389 15.6012 10.8562 15.3233 10.7902 15.0593L10.2622 12.9486V11.7104C10.2622 11.3603 10.1232 11.0246 9.87561 10.777C9.62805 10.5295 9.2923 10.3904 8.94221 10.3904H7.62219C7.27209 10.3904 6.93634 10.5295 6.68879 10.777C6.44124 11.0246 6.30216 11.3603 6.30216 11.7104V11.7104ZM7.62219 4.4503H6.30216V5.77033H7.62219V7.09035H6.30216V8.41037H7.62219V9.73039H9.60222V8.41037H8.2822V7.09035H9.60222V5.77033H8.2822V4.4503H9.60222V3.13028H8.2822V1.81026H6.30216V3.13028H7.62219V4.4503Z" fill="black" fill-opacity="0.6"/>
</svg>
