<svg width="24" height="24" viewBox="0 0 24 24" fill="none" xmlns="http://www.w3.org/2000/svg">
<path d="M20.7966 6.17688H17.8636V3.24385C17.8632 2.85503 17.7085 2.48224 17.4336 2.2073C17.1587 1.93236 16.7859 1.77773 16.397 1.77734H3.19844C2.80962 1.77773 2.43683 1.93236 2.16189 2.2073C1.88695 2.48224 1.73232 2.85503 1.73193 3.24385V16.4425C1.73232 16.8313 1.88695 17.2041 2.16189 17.479C2.43683 17.7539 2.80962 17.9086 3.19844 17.909H6.13147V20.842C6.13186 21.2308 6.28649 21.6036 6.56143 21.8785C6.83637 22.1535 7.20915 22.3081 7.59798 22.3085H20.7966C21.1854 22.3081 21.5582 22.1535 21.8331 21.8785C22.1081 21.6036 22.2627 21.2308 22.2631 20.842V7.64339C22.2627 7.25456 22.1081 6.88178 21.8331 6.60684C21.5582 6.3319 21.1854 6.17727 20.7966 6.17688V6.17688ZM3.19844 16.4425V3.24385H16.397V6.17688H7.59798C7.20915 6.17727 6.83637 6.3319 6.56143 6.60684C6.28649 6.88178 6.13186 7.25456 6.13147 7.64339V16.4425H3.19844ZM16.397 16.4425H14.5008L7.59798 9.53959V7.64339H9.49418L16.397 14.5477V16.4425ZM7.59798 11.6132L12.4272 16.4425H7.59798V11.6132ZM16.3978 12.4733L11.5678 7.64339H16.397L16.3978 12.4733ZM7.59798 20.842V17.909H16.397C16.7859 17.9086 17.1587 17.7539 17.4336 17.479C17.7085 17.2041 17.8632 16.8313 17.8636 16.4425V7.64339H20.7966V20.842H7.59798Z" fill="black" fill-opacity="0.6"/>
</svg>
