<svg width="28" height="15" viewBox="0 0 28 15" fill="none" xmlns="http://www.w3.org/2000/svg">
<path d="M27.8756 14.0551H22.8598C22.3279 14.0543 21.8181 13.8427 21.442 13.4666C21.0659 13.0905 20.8542 12.5807 20.8534 12.0488V6.02977C20.854 5.49781 21.0655 4.9878 21.4417 4.61165C21.8178 4.23551 22.3278 4.02396 22.8598 4.02342H27.8756V6.02977H22.8598V12.0488H27.8756V14.0551ZM16.8408 4.02342H12.8281V0.0107422H10.8217V14.0551H16.8408C17.3726 14.0543 17.8825 13.8427 18.2586 13.4666C18.6347 13.0905 18.8463 12.5807 18.8471 12.0488V6.02977C18.8466 5.49781 18.635 4.9878 18.2589 4.61165C17.8827 4.23551 17.3727 4.02396 16.8408 4.02342V4.02342ZM12.8281 12.0488V6.02977H16.8408V12.0488H12.8281ZM6.80906 4.02342H1.79321V6.02977H6.80906V8.03611H2.79638C2.26427 8.03611 1.75394 8.24749 1.37768 8.62375C1.00142 9.00001 0.790039 9.51033 0.790039 10.0424V12.0488C0.790039 12.5809 1.00142 13.0912 1.37768 13.4675C1.75394 13.8437 2.26427 14.0551 2.79638 14.0551H8.8154V6.02977C8.81487 5.49781 8.60332 4.9878 8.22717 4.61165C7.85103 4.23551 7.34101 4.02396 6.80906 4.02342V4.02342ZM6.80906 12.0488H2.79638V10.0424H6.80906V12.0488Z" fill="white" fill-opacity="0.6"/>
</svg>
