<svg width="20" height="24" viewBox="0 0 20 24" fill="none" xmlns="http://www.w3.org/2000/svg">
<path d="M10.7201 0.308645V3.73648L14.1479 2.02256L10.7201 0.308594V0.308645ZM9.79743 3.30981C8.6698 3.33759 7.56222 3.4666 6.63275 3.68763C6.7445 3.76111 6.81684 3.85685 6.84276 3.96555C6.86236 4.04837 6.85459 4.13681 6.81987 4.22581C6.78516 4.31482 6.72419 4.40266 6.64044 4.4843C6.55669 4.56595 6.4518 4.63981 6.33177 4.70166C6.21174 4.76351 6.07891 4.81214 5.94087 4.84478C5.80284 4.87742 5.66231 4.89342 5.5273 4.89188C5.39228 4.89034 5.26543 4.87129 5.15398 4.8358C5.04254 4.80032 4.94868 4.7491 4.87777 4.68508C4.80686 4.62105 4.76029 4.54547 4.74072 4.46265C4.73945 4.4563 4.73834 4.44991 4.73738 4.44348C4.67408 4.48756 4.61416 4.53206 4.56177 4.57696C4.27165 4.82566 4.15904 5.04679 4.15904 5.30308C4.15904 5.55937 4.27165 5.7805 4.56177 6.0292C4.85189 6.27791 5.31527 6.51779 5.89392 6.71068C7.05117 7.09645 8.65694 7.30215 10.2588 7.30215C11.8606 7.30215 13.4663 7.09645 14.6236 6.71063C15.2022 6.51779 15.6656 6.27791 15.9557 6.0292C16.2459 5.7805 16.3585 5.55937 16.3585 5.30308C16.3585 5.04679 16.2459 4.82566 15.9557 4.57696C15.6656 4.32825 15.2022 4.08837 14.6236 3.89548C14.1939 3.75227 13.7018 3.63442 13.1716 3.54231L10.7201 4.768V5.30308H9.79743V3.30981ZM3.87133 6.6485L2.69577 11.9382C2.71606 11.9374 2.73648 11.9369 2.75703 11.9369C2.85241 11.9379 2.94951 11.947 3.04566 11.9641C3.18532 11.9888 3.32069 12.0298 3.44404 12.0847C3.56739 12.1396 3.6763 12.2074 3.76456 12.2841C3.85282 12.3608 3.9187 12.4451 3.95843 12.5319C3.99817 12.6188 4.01098 12.7067 3.99614 12.7905C3.96615 12.9597 3.82537 13.1021 3.60476 13.1864C3.38416 13.2708 3.10179 13.2901 2.81977 13.2402C2.6842 13.2161 2.55267 13.1767 2.43226 13.124L0.947821 19.8041C0.97447 19.8031 1.00152 19.8028 1.02891 19.8033C1.18754 19.8072 1.35447 19.8373 1.51607 19.891C1.65065 19.9358 1.77862 19.996 1.89267 20.0683C2.00672 20.1405 2.10462 20.2234 2.18078 20.3122C2.25694 20.4009 2.30987 20.4938 2.33655 20.5855C2.36322 20.6773 2.36312 20.766 2.33625 20.8468C2.3094 20.9275 2.2563 20.9987 2.17999 21.0562C2.10367 21.1136 2.00564 21.1563 1.89148 21.1818C1.77732 21.2072 1.64927 21.2149 1.51465 21.2045C1.38002 21.194 1.24146 21.1656 1.10688 21.1208C1.01273 21.0894 0.921646 21.0504 0.836182 21.0049C0.898614 21.2263 1.02271 21.4339 1.2075 21.6465C1.59701 22.0947 2.28945 22.5207 3.19467 22.8632C4.32378 23.2904 5.77172 23.5918 7.33812 23.7581C7.34283 22.9116 7.37897 21.6862 7.65843 20.5686C7.82246 19.9125 8.06849 19.2861 8.48374 18.794C8.89893 18.3018 9.51551 17.9638 10.2588 17.9638C11.002 17.9638 11.6185 18.3018 12.0338 18.794C12.1912 18.9806 12.3242 19.1866 12.4378 19.4062C12.7241 19.4064 12.9985 19.4747 13.2008 19.5962C13.4031 19.7177 13.5168 19.8824 13.5168 20.0542C13.5166 20.1792 13.4561 20.3016 13.3426 20.4064C13.2291 20.5113 13.0674 20.5943 12.8771 20.6452C13.1395 21.7421 13.1748 22.9308 13.1794 23.7581C14.7458 23.5918 16.1937 23.2904 17.3228 22.8632C17.3997 22.8341 17.4744 22.8042 17.5481 22.774C17.4342 22.7179 17.3536 22.6365 17.3136 22.5369C17.2819 22.4579 17.2765 22.3693 17.2976 22.2761C17.3187 22.183 17.366 22.0871 17.4367 21.9939C17.5074 21.9007 17.6002 21.8121 17.7097 21.7331C17.8192 21.6542 17.9433 21.5864 18.075 21.5336C18.277 21.4527 18.489 21.4102 18.6831 21.4119C18.8224 21.4131 18.9485 21.4369 19.0527 21.4818C19.157 21.5267 19.2369 21.5915 19.2869 21.6718C19.2945 21.6634 19.3027 21.6549 19.31 21.6465C19.6995 21.1983 19.8227 20.7731 19.6567 20.1922L19.653 20.1789L17.5402 10.6714C17.4414 10.7086 17.3368 10.7372 17.2298 10.7562C16.9477 10.8061 16.6653 10.7868 16.4447 10.7024C16.2241 10.6181 16.0833 10.4756 16.0533 10.3064C16.0385 10.2226 16.0513 10.1348 16.091 10.0479C16.1307 9.96102 16.1966 9.8768 16.2849 9.80006C16.3731 9.72332 16.4821 9.65555 16.6054 9.60064C16.7288 9.54572 16.8641 9.50473 17.0038 9.48C17.0923 9.46459 17.1817 9.45588 17.2697 9.45406L16.6462 6.6485C16.6168 6.67631 16.5868 6.70342 16.5562 6.7298C16.1287 7.09619 15.5669 7.36888 14.9153 7.58606C13.6122 8.02043 11.9375 8.22479 10.2588 8.22479C9.96684 8.22479 9.67513 8.21813 9.38532 8.20567C9.32817 8.34664 9.19382 8.47203 9.00381 8.56175C8.81379 8.65147 8.57909 8.70033 8.33729 8.70052C8.05086 8.70051 7.77617 8.63223 7.57364 8.51071C7.37111 8.38919 7.25734 8.22437 7.25734 8.05251C7.25734 8.03108 7.25912 8.00966 7.26267 7.98834C6.66782 7.88762 6.1069 7.75429 5.60216 7.58606C4.95062 7.36888 4.38878 7.09619 3.96134 6.7298C3.93069 6.70342 3.90068 6.67631 3.87133 6.6485V6.6485ZM15.0146 14.7317C15.1565 14.7317 15.2969 14.7485 15.428 14.7811C15.559 14.8136 15.6781 14.8614 15.7783 14.9216C15.8786 14.9817 15.9582 15.0532 16.0125 15.1318C16.0667 15.2104 16.0947 15.2947 16.0946 15.3798C16.0946 15.5517 15.9809 15.7165 15.7783 15.838C15.5758 15.9595 15.3011 16.0278 15.0146 16.0278C14.7282 16.0278 14.4535 15.9595 14.251 15.838C14.0484 15.7165 13.9346 15.5517 13.9346 15.3798C13.9346 15.2947 13.9625 15.2104 14.0168 15.1318C14.0711 15.0532 14.1506 14.9817 14.2509 14.9216C14.3512 14.8614 14.4703 14.8136 14.6013 14.7811C14.7323 14.7485 14.8728 14.7317 15.0146 14.7317V14.7317Z" fill="black" fill-opacity="0.6"/>
</svg>
