<svg width="25" height="19" viewBox="0 0 25 19" fill="none" xmlns="http://www.w3.org/2000/svg">
<path d="M21.1133 1.69207C19.5525 0.975643 17.9052 0.464778 16.2129 0.172267C16.1974 0.169261 16.1814 0.171235 16.1672 0.177906C16.1529 0.184577 16.1412 0.1956 16.1336 0.209385C15.9229 0.585574 15.6882 1.07612 15.5237 1.46335C13.6993 1.18626 11.8436 1.18626 10.0193 1.46335C9.83618 1.03429 9.62955 0.615669 9.40032 0.209385C9.39242 0.195909 9.38061 0.185147 9.36646 0.178521C9.35231 0.171894 9.33649 0.169714 9.32107 0.172267C7.62857 0.46417 5.98125 0.97506 4.42059 1.69207C4.40737 1.69761 4.39617 1.70706 4.38848 1.71916C1.26662 6.3829 0.410913 10.9313 0.831241 15.4225C0.832262 15.4336 0.835547 15.4444 0.840894 15.4543C0.846241 15.4641 0.853539 15.4727 0.86234 15.4796C2.67968 16.8261 4.71262 17.8539 6.87434 18.5193C6.88958 18.5237 6.9058 18.5233 6.92085 18.5183C6.93589 18.5133 6.94906 18.5038 6.95861 18.4912C7.42334 17.8597 7.83472 17.1906 8.18849 16.4908C8.19343 16.4813 8.19627 16.4708 8.19685 16.46C8.19742 16.4492 8.19571 16.4385 8.19182 16.4284C8.18793 16.4184 8.18196 16.4093 8.1743 16.4017C8.16664 16.3941 8.15746 16.3883 8.14736 16.3845C7.49874 16.1363 6.87079 15.8371 6.26943 15.4897C6.2584 15.4833 6.24913 15.4743 6.24242 15.4635C6.23572 15.4526 6.23179 15.4403 6.231 15.4276C6.23021 15.4149 6.23257 15.4022 6.23787 15.3906C6.24318 15.3791 6.25126 15.369 6.2614 15.3613C6.38804 15.2665 6.51247 15.1689 6.63458 15.0683C6.64526 15.0597 6.65814 15.0542 6.67178 15.0524C6.68542 15.0506 6.69929 15.0527 6.71183 15.0583C10.6523 16.857 14.9178 16.857 18.8121 15.0583C18.8247 15.0525 18.8388 15.0503 18.8526 15.0521C18.8665 15.0539 18.8795 15.0595 18.8903 15.0683C19.0107 15.1667 19.1371 15.267 19.2645 15.3613C19.2745 15.3688 19.2826 15.3787 19.2879 15.3901C19.2932 15.4015 19.2957 15.414 19.2951 15.4266C19.2945 15.4391 19.2909 15.4513 19.2845 15.4622C19.2781 15.473 19.2692 15.4821 19.2585 15.4887C18.6585 15.8393 18.0299 16.1387 17.3795 16.3835C17.3694 16.3874 17.3602 16.3933 17.3526 16.401C17.3449 16.4087 17.3389 16.4179 17.335 16.428C17.3312 16.4381 17.3295 16.449 17.33 16.4598C17.3306 16.4706 17.3335 16.4812 17.3384 16.4908C17.6996 17.1911 18.1129 17.8572 18.5673 18.4902C18.5766 18.5031 18.5898 18.5127 18.6049 18.5177C18.62 18.5228 18.6363 18.523 18.6516 18.5182C20.8169 17.855 22.8531 16.827 24.6726 15.4786C24.6814 15.4724 24.6889 15.4643 24.6944 15.455C24.6999 15.4456 24.7034 15.4352 24.7047 15.4245C25.2063 10.2311 23.864 5.7198 21.1444 1.72116C21.1381 1.70768 21.127 1.69698 21.1133 1.69107V1.69207ZM8.77736 12.6868C7.5906 12.6868 6.61352 11.5984 6.61352 10.2601C6.61352 8.92292 7.57255 7.83348 8.77736 7.83348C9.99119 7.83348 10.9603 8.93295 10.9412 10.2612C10.9412 11.5984 9.98216 12.6868 8.77736 12.6868V12.6868ZM16.7776 12.6868C15.5909 12.6868 14.6138 11.5984 14.6138 10.2601C14.6138 8.92292 15.5718 7.83348 16.7776 7.83348C17.9915 7.83348 18.9605 8.93295 18.9415 10.2612C18.9415 11.5984 17.9925 12.6868 16.7776 12.6868V12.6868Z" fill="black" fill-opacity="0.6"/>
</svg>
