<svg width="21" height="22" viewBox="0 0 21 22" fill="none" xmlns="http://www.w3.org/2000/svg">
<path d="M16.621 13.9941C15.3169 13.9941 14.2134 14.7966 13.8122 16.0004H9.59885C9.59885 15.2982 9.39822 14.6963 9.09727 14.1947L16.2198 6.87159C16.5207 6.87159 16.8217 6.97191 17.1226 6.97191C18.5271 6.97191 19.6306 5.86842 19.6306 4.46398C19.6306 3.05954 18.5271 1.95605 17.1226 1.95605C15.7182 1.95605 14.6147 3.05954 14.6147 4.46398C14.6147 4.76493 14.715 5.1662 14.8153 5.46715L7.79314 12.69C7.19124 12.1884 6.3887 11.9878 5.58617 11.9878V7.77444C6.78997 7.37318 7.59251 6.26969 7.59251 4.96557C7.59251 3.26018 6.28839 1.95605 4.583 1.95605C2.87761 1.95605 1.57349 3.26018 1.57349 4.96557C1.57349 6.26969 2.37602 7.37318 3.57983 7.77444V12.4893C2.37602 13.1916 1.57349 14.4957 1.57349 15.9001C1.57349 18.1071 3.37919 19.9128 5.58617 19.9128C7.09092 19.9128 8.39505 19.1103 8.99695 17.9065H13.7118C14.1131 19.01 15.2166 19.9128 16.5207 19.9128C18.1258 19.9128 19.5302 18.6087 19.5302 16.9033C19.6306 15.2982 18.2261 13.9941 16.621 13.9941Z" fill="black" fill-opacity="0.6"/>
</svg>
